<?xml version="1.0" encoding="UTF-8"?>
<svg id="Layer_2" data-name="Layer 2" xmlns="http://www.w3.org/2000/svg" viewBox="0 0 540.84 540.84">
  <defs>
    <style>
      .cls-1 {
        fill: #231f20;
      }
    </style>
  </defs>
  <g id="Layer_1-2" data-name="Layer 1">
    <g>
      <path class="cls-1" d="M372.99,520.71c-31.63,12.98-66.26,20.13-102.57,20.13h-127.91v-135.21h137.42l93.05,115.08Z"/>
      <path class="cls-1" d="M540.84,270.42c0,49.25-13.17,95.43-36.18,135.21-4.39,7.6-9.14,14.96-14.23,22.06-1.47,2.04-2.96,4.06-4.48,6.06h0c-1.5,2-3.04,3.96-4.6,5.91-20.94,26.06-46.62,48.17-75.72,65-6.12,3.54-12.4,6.85-18.81,9.91-2.26,1.09-4.55,2.14-6.85,3.15l-90.65-112.1-1.71-2.12-17.19-21.26-90.43-111.83-36.13-44.68-1.35-1.66-7.3-9.03v325.8H0V0h135.21l7.3,9.03,13.27,16.41,88.77,109.78,2.47,3.06,23.4,28.94,83.46,103.21,40.87,50.55c1.07-2.61,2.05-5.27,2.95-7.96,4.48-13.38,6.9-27.7,6.9-42.59,0-74.11-60.08-134.18-134.18-134.18-5.06,0-10.07.28-14.99.83l-1.5-1.85L162.65,22.33,144.59,0h125.83c49.25,0,95.43,13.17,135.21,36.18,41.06,23.75,75.29,57.98,99.04,99.04,23.01,39.77,36.18,85.95,36.18,135.21Z"/>
    </g>
  </g>
</svg>